<mxfile host="drawio-plugin" modified="2022-04-28T19:15:00.208Z" agent="5.0 (Windows NT 6.2; Win64; x64) AppleWebKit/537.36 (KHTML, like Gecko) Chrome/97.0.4692.45 Safari/537.36" etag="yxEjyxp_BvJT3aFpjoUv" version="15.5.4" type="embed" pages="2"><diagram id="ww8vjrJGno5dP8TgIKB8" name="action algorithm"><mxGraphModel dx="247" dy="-66" grid="0" gridSize="10" guides="1" tooltips="1" connect="1" arrows="1" fold="1" page="0" pageScale="1" pageWidth="3300" pageHeight="2339" background="none" math="0" shadow="0"><root><mxCell id="0"/><mxCell id="1" parent="0"/><mxCell id="pvLtgPJUH9e9hSeolbTe-14" style="edgeStyle=orthogonalEdgeStyle;orthogonalLoop=1;jettySize=auto;html=1;exitX=1;exitY=0.5;exitDx=0;exitDy=0;entryX=0;entryY=0.5;entryDx=0;entryDy=0;fontSize=13;curved=1;fillColor=#dae8fc;strokeColor=#6c8ebf;fontColor=#000000;" parent="1" source="pvLtgPJUH9e9hSeolbTe-1" target="pvLtgPJUH9e9hSeolbTe-2" edge="1"><mxGeometry relative="1" as="geometry"/></mxCell><mxCell id="pvLtgPJUH9e9hSeolbTe-15" style="edgeStyle=orthogonalEdgeStyle;orthogonalLoop=1;jettySize=auto;html=1;exitX=1;exitY=0.5;exitDx=0;exitDy=0;entryX=0;entryY=0.5;entryDx=0;entryDy=0;fontSize=13;curved=1;fillColor=#dae8fc;strokeColor=#6c8ebf;fontColor=#000000;" parent="1" source="pvLtgPJUH9e9hSeolbTe-1" target="pvLtgPJUH9e9hSeolbTe-3" edge="1"><mxGeometry relative="1" as="geometry"/></mxCell><mxCell id="pvLtgPJUH9e9hSeolbTe-1" value="/start" style="whiteSpace=wrap;html=1;fontSize=13;rounded=1;fillColor=#dae8fc;strokeColor=#6c8ebf;fontColor=#000000;" parent="1" vertex="1"><mxGeometry x="225" y="1280" width="120" height="60" as="geometry"/></mxCell><mxCell id="pvLtgPJUH9e9hSeolbTe-16" style="edgeStyle=orthogonalEdgeStyle;orthogonalLoop=1;jettySize=auto;html=1;exitX=1;exitY=0.5;exitDx=0;exitDy=0;entryX=0;entryY=0.5;entryDx=0;entryDy=0;fontSize=13;curved=1;fillColor=#dae8fc;strokeColor=#6c8ebf;fontColor=#000000;" parent="1" source="pvLtgPJUH9e9hSeolbTe-2" target="pvLtgPJUH9e9hSeolbTe-5" edge="1"><mxGeometry relative="1" as="geometry"/></mxCell><mxCell id="pvLtgPJUH9e9hSeolbTe-2" value="/select" style="whiteSpace=wrap;html=1;fontSize=13;rounded=1;fillColor=#dae8fc;strokeColor=#6c8ebf;fontColor=#000000;" parent="1" vertex="1"><mxGeometry x="385" y="1160" width="120" height="60" as="geometry"/></mxCell><mxCell id="pvLtgPJUH9e9hSeolbTe-3" value="/help" style="whiteSpace=wrap;html=1;fontSize=13;rounded=1;fillColor=#dae8fc;strokeColor=#6c8ebf;fontColor=#000000;" parent="1" vertex="1"><mxGeometry x="385" y="1400" width="120" height="60" as="geometry"/></mxCell><mxCell id="pvLtgPJUH9e9hSeolbTe-17" style="edgeStyle=orthogonalEdgeStyle;orthogonalLoop=1;jettySize=auto;html=1;exitX=1;exitY=0;exitDx=0;exitDy=0;entryX=0;entryY=0.5;entryDx=0;entryDy=0;fontSize=13;curved=1;fillColor=#dae8fc;strokeColor=#6c8ebf;fontColor=#000000;" parent="1" source="pvLtgPJUH9e9hSeolbTe-5" target="pvLtgPJUH9e9hSeolbTe-6" edge="1"><mxGeometry relative="1" as="geometry"/></mxCell><mxCell id="pvLtgPJUH9e9hSeolbTe-18" style="edgeStyle=orthogonalEdgeStyle;orthogonalLoop=1;jettySize=auto;html=1;exitX=1;exitY=1;exitDx=0;exitDy=0;entryX=0;entryY=0.5;entryDx=0;entryDy=0;fontSize=13;curved=1;fillColor=#dae8fc;strokeColor=#6c8ebf;fontColor=#000000;" parent="1" source="pvLtgPJUH9e9hSeolbTe-5" target="pvLtgPJUH9e9hSeolbTe-7" edge="1"><mxGeometry relative="1" as="geometry"/></mxCell><mxCell id="pvLtgPJUH9e9hSeolbTe-5" value="select" style="rhombus;whiteSpace=wrap;html=1;fontSize=13;rounded=1;fillColor=#dae8fc;strokeColor=#6c8ebf;fontColor=#000000;" parent="1" vertex="1"><mxGeometry x="565" y="1150" width="80" height="80" as="geometry"/></mxCell><mxCell id="pvLtgPJUH9e9hSeolbTe-19" style="edgeStyle=orthogonalEdgeStyle;orthogonalLoop=1;jettySize=auto;html=1;exitX=1;exitY=0.5;exitDx=0;exitDy=0;entryX=0.5;entryY=0;entryDx=0;entryDy=0;fontSize=13;curved=1;fillColor=#dae8fc;strokeColor=#6c8ebf;fontColor=#000000;" parent="1" source="pvLtgPJUH9e9hSeolbTe-6" target="pvLtgPJUH9e9hSeolbTe-8" edge="1"><mxGeometry relative="1" as="geometry"/></mxCell><mxCell id="pvLtgPJUH9e9hSeolbTe-6" value="buttonVk" style="whiteSpace=wrap;html=1;fontSize=13;rounded=1;fillColor=#dae8fc;strokeColor=#6c8ebf;fontColor=#000000;" parent="1" vertex="1"><mxGeometry x="685" y="880" width="120" height="60" as="geometry"/></mxCell><mxCell id="pvLtgPJUH9e9hSeolbTe-52" style="edgeStyle=orthogonalEdgeStyle;orthogonalLoop=1;jettySize=auto;html=1;exitX=1;exitY=0.5;exitDx=0;exitDy=0;entryX=0.5;entryY=1;entryDx=0;entryDy=0;labelBackgroundColor=#E6E6E6;fontSize=13;curved=1;fillColor=#dae8fc;strokeColor=#6c8ebf;fontColor=#000000;" parent="1" source="pvLtgPJUH9e9hSeolbTe-7" target="pvLtgPJUH9e9hSeolbTe-43" edge="1"><mxGeometry relative="1" as="geometry"/></mxCell><mxCell id="pvLtgPJUH9e9hSeolbTe-7" value="buttonYt" style="whiteSpace=wrap;html=1;fontSize=13;rounded=1;fillColor=#dae8fc;strokeColor=#6c8ebf;fontColor=#000000;" parent="1" vertex="1"><mxGeometry x="685" y="1340" width="120" height="60" as="geometry"/></mxCell><mxCell id="pvLtgPJUH9e9hSeolbTe-55" style="edgeStyle=orthogonalEdgeStyle;orthogonalLoop=1;jettySize=auto;html=1;exitX=0;exitY=0.5;exitDx=0;exitDy=0;entryX=0;entryY=0.25;entryDx=0;entryDy=0;labelBackgroundColor=#E6E6E6;fontSize=13;curved=1;fillColor=#dae8fc;strokeColor=#6c8ebf;fontColor=#000000;" parent="1" source="pvLtgPJUH9e9hSeolbTe-8" target="pvLtgPJUH9e9hSeolbTe-44" edge="1"><mxGeometry relative="1" as="geometry"/></mxCell><mxCell id="pvLtgPJUH9e9hSeolbTe-8" value="Авторизация в ВК:&amp;nbsp;&lt;br style=&quot;font-size: 13px;&quot;&gt;&lt;div style=&quot;font-size: 13px;&quot;&gt;@dp.message_handler(state=MyStates.callback_auth_link)&lt;/div&gt;&lt;div style=&quot;font-size: 13px;&quot;&gt;async def message_auth_vk(message: types.Message, state: FSMContext):&lt;/div&gt;" style="whiteSpace=wrap;html=1;align=left;fontSize=13;rounded=1;fillColor=#dae8fc;strokeColor=#6c8ebf;fontColor=#000000;" parent="1" vertex="1"><mxGeometry x="885" y="980" width="440" height="80" as="geometry"/></mxCell><mxCell id="pvLtgPJUH9e9hSeolbTe-57" style="edgeStyle=orthogonalEdgeStyle;orthogonalLoop=1;jettySize=auto;html=1;exitX=1;exitY=0.5;exitDx=0;exitDy=0;entryX=0;entryY=0.5;entryDx=0;entryDy=0;labelBackgroundColor=#E6E6E6;fontSize=13;curved=1;fillColor=#dae8fc;strokeColor=#6c8ebf;fontColor=#000000;" parent="1" source="pvLtgPJUH9e9hSeolbTe-11" target="pvLtgPJUH9e9hSeolbTe-13" edge="1"><mxGeometry relative="1" as="geometry"/></mxCell><mxCell id="pvLtgPJUH9e9hSeolbTe-59" style="edgeStyle=orthogonalEdgeStyle;orthogonalLoop=1;jettySize=auto;html=1;exitX=1;exitY=0.5;exitDx=0;exitDy=0;entryX=0;entryY=0.5;entryDx=0;entryDy=0;labelBackgroundColor=#E6E6E6;fontSize=13;curved=1;fillColor=#dae8fc;strokeColor=#6c8ebf;fontColor=#000000;" parent="1" source="pvLtgPJUH9e9hSeolbTe-11" target="pvLtgPJUH9e9hSeolbTe-58" edge="1"><mxGeometry relative="1" as="geometry"/></mxCell><mxCell id="pvLtgPJUH9e9hSeolbTe-11" value="continue_action (command: str)" style="whiteSpace=wrap;html=1;fontSize=13;rounded=1;fillColor=#dae8fc;strokeColor=#6c8ebf;fontColor=#000000;" parent="1" vertex="1"><mxGeometry x="1485" y="1100" width="200" height="80" as="geometry"/></mxCell><mxCell id="pvLtgPJUH9e9hSeolbTe-25" style="edgeStyle=orthogonalEdgeStyle;orthogonalLoop=1;jettySize=auto;html=1;exitX=1;exitY=0.5;exitDx=0;exitDy=0;entryX=0;entryY=0.5;entryDx=0;entryDy=0;fontSize=13;curved=1;fillColor=#dae8fc;strokeColor=#6c8ebf;fontColor=#000000;" parent="1" source="pvLtgPJUH9e9hSeolbTe-13" target="pvLtgPJUH9e9hSeolbTe-24" edge="1"><mxGeometry relative="1" as="geometry"><mxPoint x="2255" y="1190" as="sourcePoint"/></mxGeometry></mxCell><mxCell id="pvLtgPJUH9e9hSeolbTe-13" value="&lt;div style=&quot;font-size: 13px;&quot;&gt;@dp.message_handler(commands=['continue_on_vk'])&lt;/div&gt;&lt;div style=&quot;font-size: 13px;&quot;&gt;async def message_select_vk_scope(message: types.Message):&lt;/div&gt;" style="whiteSpace=wrap;html=1;align=left;fontSize=13;rounded=1;fillColor=#dae8fc;strokeColor=#6c8ebf;fontColor=#000000;" parent="1" vertex="1"><mxGeometry x="1765" y="980" width="440" height="80" as="geometry"/></mxCell><mxCell id="pvLtgPJUH9e9hSeolbTe-31" style="edgeStyle=orthogonalEdgeStyle;orthogonalLoop=1;jettySize=auto;html=1;exitX=1;exitY=0;exitDx=0;exitDy=0;entryX=0;entryY=0.5;entryDx=0;entryDy=0;fontSize=13;curved=1;fillColor=#dae8fc;strokeColor=#6c8ebf;fontColor=#000000;" parent="1" source="pvLtgPJUH9e9hSeolbTe-24" target="pvLtgPJUH9e9hSeolbTe-27" edge="1"><mxGeometry relative="1" as="geometry"/></mxCell><mxCell id="pvLtgPJUH9e9hSeolbTe-32" style="edgeStyle=orthogonalEdgeStyle;orthogonalLoop=1;jettySize=auto;html=1;exitX=1;exitY=1;exitDx=0;exitDy=0;entryX=0;entryY=0.5;entryDx=0;entryDy=0;fontSize=13;curved=1;fillColor=#dae8fc;strokeColor=#6c8ebf;fontColor=#000000;" parent="1" source="pvLtgPJUH9e9hSeolbTe-24" target="pvLtgPJUH9e9hSeolbTe-28" edge="1"><mxGeometry relative="1" as="geometry"/></mxCell><mxCell id="pvLtgPJUH9e9hSeolbTe-33" style="edgeStyle=orthogonalEdgeStyle;orthogonalLoop=1;jettySize=auto;html=1;exitX=1;exitY=0.5;exitDx=0;exitDy=0;entryX=0;entryY=0.5;entryDx=0;entryDy=0;fontSize=13;curved=1;fillColor=#dae8fc;strokeColor=#6c8ebf;fontColor=#000000;" parent="1" source="pvLtgPJUH9e9hSeolbTe-24" target="pvLtgPJUH9e9hSeolbTe-29" edge="1"><mxGeometry relative="1" as="geometry"/></mxCell><mxCell id="pvLtgPJUH9e9hSeolbTe-24" value="select" style="rhombus;whiteSpace=wrap;html=1;fontSize=13;rounded=1;fillColor=#dae8fc;strokeColor=#6c8ebf;fontColor=#000000;" parent="1" vertex="1"><mxGeometry x="2235" y="980" width="80" height="80" as="geometry"/></mxCell><mxCell id="pvLtgPJUH9e9hSeolbTe-35" value="" style="edgeStyle=orthogonalEdgeStyle;orthogonalLoop=1;jettySize=auto;html=1;fontSize=13;curved=1;fillColor=#dae8fc;strokeColor=#6c8ebf;fontColor=#000000;" parent="1" source="pvLtgPJUH9e9hSeolbTe-27" target="pvLtgPJUH9e9hSeolbTe-34" edge="1"><mxGeometry relative="1" as="geometry"/></mxCell><mxCell id="pvLtgPJUH9e9hSeolbTe-27" value="photos" style="whiteSpace=wrap;html=1;fontSize=13;rounded=1;fillColor=#dae8fc;strokeColor=#6c8ebf;fontColor=#000000;" parent="1" vertex="1"><mxGeometry x="2355" y="880" width="120" height="60" as="geometry"/></mxCell><mxCell id="pvLtgPJUH9e9hSeolbTe-28" value="docs" style="whiteSpace=wrap;html=1;fontSize=13;rounded=1;fillColor=#dae8fc;strokeColor=#6c8ebf;fontColor=#000000;" parent="1" vertex="1"><mxGeometry x="2355" y="1100" width="120" height="60" as="geometry"/></mxCell><mxCell id="pvLtgPJUH9e9hSeolbTe-29" value="videos" style="whiteSpace=wrap;html=1;fontSize=13;rounded=1;fillColor=#dae8fc;strokeColor=#6c8ebf;fontColor=#000000;" parent="1" vertex="1"><mxGeometry x="2355" y="990" width="120" height="60" as="geometry"/></mxCell><mxCell id="pvLtgPJUH9e9hSeolbTe-37" value="" style="edgeStyle=orthogonalEdgeStyle;orthogonalLoop=1;jettySize=auto;html=1;fontSize=13;curved=1;fillColor=#dae8fc;strokeColor=#6c8ebf;fontColor=#000000;" parent="1" source="pvLtgPJUH9e9hSeolbTe-34" target="pvLtgPJUH9e9hSeolbTe-36" edge="1"><mxGeometry relative="1" as="geometry"/></mxCell><mxCell id="pvLtgPJUH9e9hSeolbTe-34" value="&lt;div style=&quot;font-size: 13px;&quot;&gt;@dp.callback_query_handler(lambda c: c.data)&lt;/div&gt;&lt;div style=&quot;font-size: 13px;&quot;&gt;async def callback_save_album(callback_query: types.CallbackQuery):&lt;/div&gt;" style="whiteSpace=wrap;html=1;align=left;fontSize=13;rounded=1;fillColor=#dae8fc;strokeColor=#6c8ebf;fontColor=#000000;" parent="1" vertex="1"><mxGeometry x="2555" y="880" width="320" height="60" as="geometry"/></mxCell><mxCell id="pvLtgPJUH9e9hSeolbTe-36" value="ссылка на папку с файлами на яндекс диске пользователя" style="whiteSpace=wrap;html=1;align=left;fontSize=13;rounded=1;fillColor=#dae8fc;strokeColor=#6c8ebf;fontColor=#000000;" parent="1" vertex="1"><mxGeometry x="2955" y="880" width="120" height="60" as="geometry"/></mxCell><mxCell id="pvLtgPJUH9e9hSeolbTe-54" style="edgeStyle=orthogonalEdgeStyle;orthogonalLoop=1;jettySize=auto;html=1;exitX=0;exitY=0.5;exitDx=0;exitDy=0;entryX=0;entryY=0.75;entryDx=0;entryDy=0;labelBackgroundColor=#E6E6E6;fontSize=13;curved=1;fillColor=#dae8fc;strokeColor=#6c8ebf;fontColor=#000000;" parent="1" source="pvLtgPJUH9e9hSeolbTe-43" target="pvLtgPJUH9e9hSeolbTe-44" edge="1"><mxGeometry relative="1" as="geometry"/></mxCell><mxCell id="pvLtgPJUH9e9hSeolbTe-43" value="Авторизация в YouTube" style="whiteSpace=wrap;html=1;align=left;fontSize=13;rounded=1;fillColor=#dae8fc;strokeColor=#6c8ebf;fontColor=#000000;" parent="1" vertex="1"><mxGeometry x="885" y="1220" width="440" height="80" as="geometry"/></mxCell><mxCell id="pvLtgPJUH9e9hSeolbTe-45" style="edgeStyle=orthogonalEdgeStyle;orthogonalLoop=1;jettySize=auto;html=1;exitX=1;exitY=0.5;exitDx=0;exitDy=0;entryX=0;entryY=0.5;entryDx=0;entryDy=0;labelBackgroundColor=#E6E6E6;fontSize=13;curved=1;fillColor=#dae8fc;strokeColor=#6c8ebf;fontColor=#000000;" parent="1" source="pvLtgPJUH9e9hSeolbTe-44" target="pvLtgPJUH9e9hSeolbTe-11" edge="1"><mxGeometry relative="1" as="geometry"/></mxCell><mxCell id="pvLtgPJUH9e9hSeolbTe-44" value="Авторизация в Yandex Disk:&amp;nbsp;&lt;br style=&quot;font-size: 13px;&quot;&gt;&lt;div style=&quot;font-size: 13px;&quot;&gt;@dp.message_handler(state=MyStates.auth_ya_disk)&lt;/div&gt;&lt;div style=&quot;font-size: 13px;&quot;&gt;async def message_auth_ya_disk(message: types.Message, state: FSMContext):&lt;/div&gt;" style="whiteSpace=wrap;html=1;align=left;fontSize=13;rounded=1;fillColor=#dae8fc;strokeColor=#6c8ebf;fontColor=#000000;" parent="1" vertex="1"><mxGeometry x="885" y="1100" width="440" height="80" as="geometry"/></mxCell><mxCell id="pvLtgPJUH9e9hSeolbTe-56" value="+command" style="text;html=1;align=center;verticalAlign=middle;whiteSpace=wrap;labelBackgroundColor=#E6E6E6;fontSize=13;rounded=1;fillColor=#dae8fc;strokeColor=#6c8ebf;fontColor=#000000;" parent="1" vertex="1"><mxGeometry x="1365" y="1110" width="80" height="30" as="geometry"/></mxCell><mxCell id="pvLtgPJUH9e9hSeolbTe-58" value="&lt;div style=&quot;font-size: 13px&quot;&gt;Выбор области загрузки из Youtube&lt;/div&gt;" style="whiteSpace=wrap;html=1;align=left;fontSize=13;rounded=1;fillColor=#dae8fc;strokeColor=#6c8ebf;fontColor=#000000;" parent="1" vertex="1"><mxGeometry x="1765" y="1220" width="440" height="80" as="geometry"/></mxCell></root></mxGraphModel></diagram><diagram id="o4U7LRGJAfg45H1nepju" name="registration_handlers"><mxGraphModel dx="3847" dy="334" grid="0" gridSize="10" guides="1" tooltips="1" connect="1" arrows="1" fold="1" page="0" pageScale="1" pageWidth="3300" pageHeight="2339" math="0" shadow="0"><root><mxCell id="Ei8BBK90scX5dqql1AXX-0"/><mxCell id="Ei8BBK90scX5dqql1AXX-1" parent="Ei8BBK90scX5dqql1AXX-0"/><mxCell id="au7N9cf6BMEDS6x-IFI1-6" value="&lt;font style=&quot;font-size: 16px&quot;&gt;&lt;b&gt;def register_handlers&amp;nbsp;&lt;/b&gt;&lt;/font&gt;&lt;span style=&quot;font-size: 16px&quot;&gt;&lt;b&gt;(dp: Dispatcher)&lt;/b&gt;&lt;/span&gt;" style="shape=umlFrame;whiteSpace=wrap;html=1;rounded=1;labelBorderColor=none;fontSize=14;fontColor=#000000;strokeColor=default;fillColor=#FFFFFF;gradientColor=none;width=311;height=40;fontStyle=0;autosize=0;noLabel=0;dropTarget=0;" parent="Ei8BBK90scX5dqql1AXX-1" vertex="1"><mxGeometry x="-2998" y="788" width="445" height="546" as="geometry"/></mxCell><mxCell id="au7N9cf6BMEDS6x-IFI1-9" style="edgeStyle=orthogonalEdgeStyle;curved=1;rounded=0;orthogonalLoop=1;jettySize=auto;html=1;exitX=1;exitY=0.75;exitDx=0;exitDy=0;entryX=0;entryY=0.5;entryDx=0;entryDy=0;fontSize=15;fontColor=#000000;" parent="Ei8BBK90scX5dqql1AXX-1" source="Ei8BBK90scX5dqql1AXX-5" target="au7N9cf6BMEDS6x-IFI1-1" edge="1"><mxGeometry relative="1" as="geometry"/></mxCell><mxCell id="au7N9cf6BMEDS6x-IFI1-10" style="edgeStyle=orthogonalEdgeStyle;curved=1;rounded=0;orthogonalLoop=1;jettySize=auto;html=1;exitX=1;exitY=0.25;exitDx=0;exitDy=0;entryX=0;entryY=0.5;entryDx=0;entryDy=0;fontSize=15;fontColor=#000000;" parent="Ei8BBK90scX5dqql1AXX-1" source="Ei8BBK90scX5dqql1AXX-5" target="au7N9cf6BMEDS6x-IFI1-0" edge="1"><mxGeometry relative="1" as="geometry"/></mxCell><mxCell id="Ei8BBK90scX5dqql1AXX-5" value="&lt;font color=&quot;#000000&quot; style=&quot;font-size: 14px;&quot;&gt;core.py&lt;/font&gt;" style="whiteSpace=wrap;html=1;fillColor=#FFFFFF;strokeColor=default;rounded=1;fontSize=14;fontStyle=0;autosize=0;" parent="Ei8BBK90scX5dqql1AXX-1" vertex="1"><mxGeometry x="-3171" y="1024" width="120" height="60" as="geometry"/></mxCell><mxCell id="au7N9cf6BMEDS6x-IFI1-0" value="&lt;font color=&quot;#000000&quot; style=&quot;font-size: 14px;&quot;&gt;&lt;span style=&quot;font-size: 14px;&quot;&gt;main_handlers.py&lt;/span&gt;&lt;/font&gt;" style="whiteSpace=wrap;html=1;fillColor=#FFFFFF;strokeColor=default;rounded=1;fontSize=14;fontStyle=0;autosize=0;" parent="Ei8BBK90scX5dqql1AXX-1" vertex="1"><mxGeometry x="-2837" y="898" width="120" height="60" as="geometry"/></mxCell><mxCell id="au7N9cf6BMEDS6x-IFI1-1" value="&lt;font color=&quot;#000000&quot; style=&quot;font-size: 14px;&quot;&gt;&lt;span style=&quot;font-size: 14px;&quot;&gt;vk_handlers.py&lt;/span&gt;&lt;/font&gt;" style="whiteSpace=wrap;html=1;fillColor=#FFFFFF;strokeColor=default;rounded=1;fontSize=14;fontStyle=0;autosize=0;" parent="Ei8BBK90scX5dqql1AXX-1" vertex="1"><mxGeometry x="-2837" y="1191" width="120" height="60" as="geometry"/></mxCell><mxCell id="au7N9cf6BMEDS6x-IFI1-8" style="edgeStyle=orthogonalEdgeStyle;curved=1;rounded=0;orthogonalLoop=1;jettySize=auto;html=1;exitX=1;exitY=0.5;exitDx=0;exitDy=0;entryX=0;entryY=0.5;entryDx=0;entryDy=0;fontSize=15;fontColor=#000000;" parent="Ei8BBK90scX5dqql1AXX-1" source="au7N9cf6BMEDS6x-IFI1-2" target="Ei8BBK90scX5dqql1AXX-5" edge="1"><mxGeometry relative="1" as="geometry"/></mxCell><mxCell id="au7N9cf6BMEDS6x-IFI1-2" value="&lt;font color=&quot;#000000&quot; style=&quot;font-size: 14px;&quot;&gt;&lt;span style=&quot;font-size: 14px;&quot;&gt;app.py&lt;/span&gt;&lt;/font&gt;" style="whiteSpace=wrap;html=1;fillColor=#FFFFFF;strokeColor=default;rounded=1;fontSize=14;fontStyle=0;autosize=0;" parent="Ei8BBK90scX5dqql1AXX-1" vertex="1"><mxGeometry x="-3345" y="1034" width="120" height="60" as="geometry"/></mxCell></root></mxGraphModel></diagram></mxfile>